<?xml version="1.0" standalone="no"?>
<!DOCTYPE svg PUBLIC "-//W3C//DTD SVG 20010904//EN"
 "http://www.w3.org/TR/2001/REC-SVG-20010904/DTD/svg10.dtd">
<svg version="1.0" xmlns="http://www.w3.org/2000/svg"
 width="551.000000pt" height="551.000000pt" viewBox="0 0 551.000000 551.000000"
 preserveAspectRatio="xMidYMid meet">
<metadata>
Created by potrace 1.11, written by Peter Selinger 2001-2013
</metadata>
<g transform="translate(0.000000,551.000000) scale(0.100000,-0.100000)"
fill="#000000" stroke="none">
<path d="M5395 5484 c-27 -8 -57 -16 -66 -18 -63 -15 -442 -199 -511 -247 -14
-11 -28 -19 -31 -19 -13 0 -831 -512 -847 -530 -3 -3 -36 -25 -75 -50 -38 -25
-72 -47 -75 -50 -3 -3 -39 -28 -80 -56 -142 -96 -483 -337 -660 -467 -41 -31
-90 -66 -108 -79 -18 -13 -39 -28 -47 -35 -17 -16 -29 -20 -33 -11 -9 21 -23
78 -28 117 -3 25 -12 62 -20 83 -7 21 -14 42 -14 46 -4 41 -72 252 -115 359
-43 102 -145 304 -165 323 -3 3 -23 31 -45 64 -53 78 -179 204 -256 256 -120
82 -287 139 -397 136 -23 0 -42 3 -42 7 0 5 -4 6 -9 2 -5 -3 -43 -7 -83 -10
-77 -5 -140 -17 -223 -42 -82 -24 -215 -84 -215 -95 0 -5 -5 -8 -11 -8 -23 0
-155 -98 -241 -179 -152 -144 -274 -314 -396 -554 -39 -76 -71 -141 -72 -145
-2 -4 -6 -16 -10 -27 -51 -128 -83 -219 -108 -301 -46 -152 -46 -147 -11 -167
40 -23 46 -22 54 10 7 30 122 268 159 330 89 149 172 246 319 369 43 37 165
94 236 110 43 10 164 12 201 2 191 -49 352 -252 468 -593 28 -82 56 -178 68
-230 2 -11 6 -29 8 -40 2 -11 9 -40 15 -65 13 -57 47 -259 56 -326 7 -57 19
-41 -144 -184 -35 -30 -85 -75 -112 -100 -27 -25 -81 -74 -121 -110 -88 -79
-562 -551 -639 -636 -29 -33 -79 -89 -109 -123 -30 -35 -60 -69 -65 -75 -69
-74 -298 -376 -370 -486 -27 -41 -53 -76 -57 -78 -4 -2 -8 -8 -8 -14 0 -5 -21
-44 -47 -86 -43 -71 -153 -284 -158 -307 -1 -5 -8 -23 -14 -40 -36 -86 -75
-208 -87 -267 -2 -13 -6 -34 -9 -48 -26 -127 -26 -326 -1 -449 11 -52 38 -137
48 -148 6 -7 8 -13 4 -13 -3 0 8 -23 24 -50 17 -28 30 -55 30 -60 0 -4 3 -10
8 -12 4 -1 19 -18 34 -35 l26 -33 131 198 c71 108 133 202 138 207 7 9 76 110
177 260 23 33 44 61 49 63 4 2 7 10 7 17 0 7 4 15 8 17 5 1 28 32 52 68 40 60
148 211 168 235 4 6 23 33 42 60 19 28 38 52 43 53 4 2 7 7 7 12 0 5 9 19 20
32 10 12 76 100 146 193 70 94 146 193 168 221 23 28 59 75 81 104 22 29 45
57 50 64 6 6 28 34 49 61 22 28 46 57 53 65 7 8 37 44 65 79 108 131 253 299
337 390 79 86 86 92 92 70 7 -27 3 -423 -5 -480 -3 -20 -7 -56 -10 -80 -8 -70
-23 -173 -31 -209 -10 -53 -14 -76 -20 -114 -3 -21 -7 -42 -10 -46 -3 -4 -7
-25 -11 -45 -6 -39 -6 -42 -25 -115 -6 -25 -12 -53 -14 -63 -2 -10 -7 -27 -10
-37 -3 -10 -7 -27 -9 -37 -9 -43 -78 -280 -115 -389 -21 -65 -38 -121 -36
-122 6 -6 113 55 194 111 190 129 364 306 498 507 60 89 128 210 138 242 4 13
11 25 14 28 11 8 51 98 51 115 0 8 4 15 10 15 5 0 9 3 8 8 0 4 1 14 5 22 3 8
15 42 27 75 11 33 24 67 27 75 8 18 7 15 22 70 7 25 18 63 26 85 11 34 49 198
60 260 17 94 26 147 30 185 3 25 8 62 11 83 6 42 13 122 19 207 2 30 4 143 5
250 l1 195 48 45 c27 25 102 95 166 155 65 61 127 118 138 128 12 10 51 46 87
80 36 34 110 103 165 152 54 50 115 106 136 125 20 19 55 50 76 69 21 18 58
52 83 75 25 22 83 75 130 116 47 41 87 78 90 81 3 3 82 70 175 149 94 79 175
148 180 154 6 6 32 29 59 51 27 22 59 49 70 60 12 11 43 38 71 60 27 22 57 47
65 56 8 9 44 40 80 69 36 30 79 67 95 81 17 15 71 62 120 105 147 126 207 178
231 199 12 11 33 29 46 40 90 77 208 179 208 182 0 6 -25 1 -75 -13z"/>
</g>
</svg>
