<svg xmlns="http://www.w3.org/2000/svg" width="512" height="512"><defs><linearGradient x1="100%" y1="100%" x2="0%" y2="0%" id="a"><stop stop-color="#FF6319" offset="0%"/><stop stop-color="#FF9019" offset="100%"/></linearGradient></defs><g fill="url(#a)" fill-rule="nonzero"><path d="M235.5 37.272H69.636C31.239 37.272 0 68.512 0 106.909v89.454C0 234.761 31.239 266 69.636 266h35.659v21.67c-23.057 5.706-40.205 26.561-40.205 51.356v10.728c0 12.432 4.321 23.868 11.526 32.909h-19.66C25.551 382.663 0 408.214 0 439.62V502c0 5.522 4.477 10 10 10h216c5.523 0 10-4.478 10-10v-62.38c0-31.406-25.551-56.957-56.957-56.957h-19.66c7.205-9.041 11.526-20.477 11.526-32.909v-10.728c0-23.567-15.492-43.577-36.825-50.401L156.71 266h78.79c38.397 0 69.636-31.239 69.636-69.637v-89.454c0-38.397-31.239-69.637-69.636-69.637zm-56.457 365.391c20.378 0 36.957 16.579 36.957 36.957V492H20v-52.38c0-20.378 16.579-36.957 36.957-36.957H108v20.264c0 5.522 4.477 10 10 10s10-4.478 10-10v-20.264h51.043zm-28.134-63.637v10.728c0 18.146-14.763 32.909-32.909 32.909S85.091 367.9 85.091 349.754v-10.728c0-18.146 14.763-32.908 32.909-32.908s32.909 14.763 32.909 32.908zm134.227-142.663c0 27.37-22.267 49.637-49.636 49.637h-82.932a10.001 10.001 0 0 0-7.071 2.929l-20.202 20.202V256c0-5.522-4.477-10-10-10H69.636C42.267 246 20 223.733 20 196.363v-89.454c0-27.37 22.267-49.637 49.636-49.637H235.5c27.37 0 49.636 22.267 49.636 49.637v89.454zM455.043 382.663h-19.66c7.205-9.041 11.526-20.477 11.526-32.909v-10.728c0-29.174-23.735-52.908-52.909-52.908s-52.909 23.734-52.909 52.908v10.728c0 12.432 4.321 23.868 11.526 32.909h-19.66c-31.406 0-56.957 25.551-56.957 56.957V502c0 5.522 4.477 10 10 10h216c5.523 0 10-4.478 10-10v-62.38c0-31.406-25.551-56.957-56.957-56.957zm-93.952-43.637c0-18.146 14.763-32.908 32.909-32.908s32.909 14.763 32.909 32.908v10.728c0 18.146-14.763 32.909-32.909 32.909s-32.909-14.763-32.909-32.909v-10.728zM492 492H296v-52.38c0-20.378 16.579-36.957 36.957-36.957H384v25.381c0 5.522 4.477 10 10 10s10-4.478 10-10v-25.381h51.043c20.378 0 36.957 16.579 36.957 36.957V492z"/><path d="M125.07 452.6c-1.86-1.871-4.44-2.93-7.07-2.93s-5.21 1.06-7.07 2.93a10.06 10.06 0 0 0-2.93 7.07c0 2.63 1.07 5.21 2.93 7.07 1.86 1.859 4.44 2.93 7.07 2.93s5.21-1.07 7.07-2.93 2.93-4.44 2.93-7.07c0-2.64-1.07-5.21-2.93-7.07zM442.364 0H276.5c-5.523 0-10 4.478-10 10s4.477 10 10 10h165.864C469.733 20 492 42.267 492 69.637v89.454c0 27.37-22.267 49.637-49.636 49.637h-45.659c-5.523 0-10 4.478-10 10v13.131l-20.202-20.202a10 10 0 0 0-7.071-2.929h-21.765c-5.523 0-10 4.478-10 10s4.477 10 10 10h17.623l34.344 34.344a9.997 9.997 0 0 0 10.897 2.168 10 10 0 0 0 6.173-9.239v-27.272h35.659c38.397 0 69.636-31.239 69.636-69.637V69.637C512 31.239 480.761 0 442.364 0zM222.006 90.846h-22.407c-5.523 0-10 4.478-10 10 0 4.975 3.637 9.09 8.396 9.86l-36.575 36.575-22.199-22.199c-3.905-3.904-10.237-3.904-14.142 0l-57.026 57.025c-3.905 3.905-3.906 10.237 0 14.143a9.972 9.972 0 0 0 7.071 2.929 9.97 9.97 0 0 0 7.071-2.929l49.955-49.955 22.198 22.198c3.905 3.904 10.237 3.904 14.142 0l43.654-43.653c.762 4.766 4.881 8.412 9.862 8.412 5.523 0 10-4.478 10-10v-22.406c0-5.522-4.477-10-10-10z"/><path d="M384 150h-48.689c-5.523 0-10 4.478-10 10s4.477 10 10 10H384c5.523 0 10-4.478 10-10s-4.477-10-10-10zM433.07 152.93c-1.86-1.86-4.44-2.93-7.07-2.93s-5.21 1.069-7.07 2.93c-1.86 1.86-2.93 4.44-2.93 7.07s1.07 5.21 2.93 7.069c1.86 1.86 4.44 2.931 7.07 2.931s5.21-1.07 7.07-2.931c1.86-1.859 2.93-4.439 2.93-7.069s-1.07-5.21-2.93-7.07zM448 54H335.311c-5.523 0-10 4.478-10 10s4.477 10 10 10H448c5.523 0 10-4.478 10-10s-4.477-10-10-10zM448 102H335.311c-5.523 0-10 4.478-10 10s4.477 10 10 10H448c5.523 0 10-4.478 10-10s-4.477-10-10-10z"/></g></svg>