<svg xmlns="http://www.w3.org/2000/svg" viewBox="0 0 389.292 389.292"><path d="M287.967 64.952a8.999 8.999 0 0 1-.001-12.728l6.015-6.016c3.514-3.515 9.214-3.516 12.728-.001a8.999 8.999 0 0 1 .001 12.728l-6.015 6.016c-1.757 1.757-4.061 2.636-6.364 2.636s-4.607-.878-6.364-2.635zm-92.812-38.444a9 9 0 0 0 9-9V9a9 9 0 0 0-18 0v8.508a9 9 0 0 0 9 9zm140.253 140.255h8.507a9 9 0 0 0 0-18h-8.507a9 9 0 0 0 0 18zM89.614 64.951a8.97 8.97 0 0 0 6.364 2.636 8.97 8.97 0 0 0 6.363-2.635 8.999 8.999 0 0 0 .001-12.728l-6.015-6.016c-3.514-3.514-9.214-3.516-12.728-.001a8.999 8.999 0 0 0-.001 12.728l6.016 6.016zm220.189 185.163c-30.889-20.51-71.786-31.805-115.158-31.805-43.371 0-84.269 11.295-115.157 31.805-32.023 21.263-49.659 49.906-49.659 80.654a9 9 0 0 0 9 9h65.164a8.999 8.999 0 0 0 8.349-12.361l-10.447-25.951a9 9 0 0 0-16.697 6.722l5.471 13.59H48.496c3.156-21.184 17.417-41.034 40.948-56.658 27.971-18.572 65.332-28.8 105.2-28.8 39.869 0 77.23 10.228 105.202 28.8 23.531 15.624 37.792 35.474 40.948 56.658h-42.171l5.473-13.589c1.856-4.611-.376-9.854-4.986-11.71a8.999 8.999 0 0 0-11.711 4.986l-10.451 25.951a8.999 8.999 0 0 0 8.349 12.362h65.166a9 9 0 0 0 9-9c0-30.748-17.636-59.392-49.66-80.654zM152.687 135.402c0-24.956 15.968-46.813 39.734-54.387a8.995 8.995 0 0 1 5.466 0c23.766 7.574 39.732 29.43 39.732 54.387 0 24.959-15.968 46.815-39.733 54.386a9.002 9.002 0 0 1-5.462 0c-23.768-7.572-39.737-29.428-39.737-54.386zm18 0c0 16.114 9.719 30.338 24.468 36.254 14.747-5.915 24.465-20.139 24.465-36.254 0-16.113-9.717-30.337-24.465-36.255-14.749 5.918-24.468 20.142-24.468 36.255zM46.39 166.763h8.512a9 9 0 0 0 0-18H46.39a9 9 0 0 0 0 18zm215.472 136.756c.167 1.412.266 2.842.292 4.25.47 26.553-30.05 54.543-59.966 78.423l-1.412 1.128c-1.644 1.314-3.633 1.971-5.621 1.971s-3.977-.657-5.62-1.97l-1.396-1.114c-29.926-23.882-60.454-51.876-59.983-78.427.029-1.695.163-3.406.396-5.082 2.806-20.261 20.17-35.546 40.391-35.546 9.701 0 18.951 3.45 26.212 9.54a40.78 40.78 0 0 1 26.209-9.54c20.625 0 38.035 15.634 40.498 36.367zm-17.706 4.58a24.804 24.804 0 0 0-.17-2.458c-1.387-11.68-11.113-20.489-22.623-20.489a22.806 22.806 0 0 0-18.792 9.901 9.002 9.002 0 0 1-14.834-.001 22.808 22.808 0 0 0-18.795-9.901c-11.467 0-20.955 8.421-22.562 20.023a24.2 24.2 0 0 0-.228 2.92c-.344 19.349 32.993 47.729 49 60.664 16-12.927 49.347-41.315 49.004-60.659z"/></svg>