<svg xmlns="http://www.w3.org/2000/svg" width="512" height="512"><defs><linearGradient x1="100%" y1="100%" x2="0%" y2="0%" id="a"><stop stop-color="#FF6319" offset="0%"/><stop stop-color="#FF9019" offset="100%"/></linearGradient></defs><g fill="url(#a)" fill-rule="nonzero"><path d="M59.07 290.06c-1.86-1.87-4.44-2.93-7.07-2.93s-5.21 1.06-7.07 2.93a10.04 10.04 0 0 0-2.93 7.07c0 2.63 1.07 5.21 2.93 7.07 1.86 1.86 4.44 2.93 7.07 2.93s5.21-1.07 7.07-2.93 2.93-4.44 2.93-7.07c0-2.64-1.07-5.21-2.93-7.07z"/><path d="M467.07 93.915l-91-90.987A9.998 9.998 0 0 0 369 0H72C55.458 0 42 13.458 42 30v226c0 5.523 4.477 10 10 10s10-4.477 10-10V30c0-5.514 4.486-10 10-10h287v61c0 16.542 13.458 30 30 30h61v371c0 5.514-4.486 10-10 10h-10V342.063c0-5.523-4.477-10-10-10h-52c-5.523 0-10 4.477-10 10V492h-20V374.063c0-5.523-4.477-10-10-10h-52c-5.523 0-10 4.477-10 10V492h-20v-78.938c0-5.523-4.477-10-10-10h-52c-5.523 0-10 4.477-10 10V492h-20v-42c0-5.523-4.477-10-10-10H92c-5.523 0-10 4.477-10 10v42H72c-5.514 0-10-4.486-10-10V335.063c0-5.523-4.477-10-10-10s-10 4.477-10 10V482c0 16.542 13.458 30 30 30h368c16.542 0 30-13.458 30-30V100.987a10 10 0 0 0-2.93-7.072zM389 91c-5.514 0-10-4.486-10-10V34.14L435.869 91H389zM134 492h-32v-32h32v32zm92 0h-32v-68.938h32V492zm92 0h-32V384.063h32V492zm92 0h-32V352.063h32V492z"/><path d="M199.663 112.149A41.74 41.74 0 0 0 206 90v-8c0-23.159-18.841-42-42-42s-42 18.841-42 42v8a41.74 41.74 0 0 0 6.337 22.149C102.472 114.032 82 135.663 82 162v40c0 5.523 4.477 10 10 10h144c5.523 0 10-4.477 10-10v-40c0-26.337-20.472-47.968-46.337-49.851zM142 82c0-12.131 9.869-22 22-22s22 9.869 22 22v8c0 12.131-9.869 22-22 22s-22-9.869-22-22v-8zm84 110H102v-30c0-16.542 13.458-30 30-30h22v30c0 5.523 4.477 10 10 10s10-4.477 10-10v-30h22c16.542 0 30 13.458 30 30v30zM396 144H276c-5.523 0-10 4.477-10 10s4.477 10 10 10h120c5.523 0 10-4.477 10-10s-4.477-10-10-10zM403.07 194.93c-1.86-1.86-4.44-2.93-7.07-2.93s-5.21 1.07-7.07 2.93c-1.86 1.86-2.93 4.44-2.93 7.07s1.07 5.21 2.93 7.07S393.37 212 396 212s5.21-1.07 7.07-2.93c1.86-1.86 2.93-4.44 2.93-7.07s-1.07-5.21-2.93-7.07zM353 192h-77c-5.523 0-10 4.477-10 10s4.477 10 10 10h77c5.523 0 10-4.477 10-10s-4.477-10-10-10zM304.372 96H276c-5.523 0-10 4.477-10 10s4.477 10 10 10h28.372c5.523 0 10-4.477 10-10s-4.477-10-10-10zM404.517 250.76a9.999 9.999 0 0 0-8.517-4.759h-25.333c-5.523 0-10 4.477-10 10 0 3.181 1.49 6.01 3.806 7.841L235.43 329.69l-22.859-22.859a10.002 10.002 0 0 0-11.604-1.842l-87.5 44.5c-4.923 2.503-6.884 8.524-4.38 13.447a9.998 9.998 0 0 0 13.446 4.381l81.029-41.209 22.866 22.867a10.003 10.003 0 0 0 11.617 1.836l137.057-69.939a9.962 9.962 0 0 0 5.141 6.338 10 10 0 0 0 13.434-4.42l9.003-17.832c.182-.32.351-.647.497-.984l1.75-3.466a10 10 0 0 0-.41-9.748z"/></g></svg>