<svg xmlns="http://www.w3.org/2000/svg" width="56.187" height="113.44"><defs><linearGradient id="a" x1="512.438" y1="6312" x2="512.438" y2="6201.56" gradientUnits="userSpaceOnUse"><stop offset="0" stop-color="#ff974d"/><stop offset="1" stop-color="#ff6319"/></linearGradient></defs><path data-name="?" d="M508.274 6287.82a26.662 26.662 0 0 1 .449-6.09c3.521-19.96 24.572-24.33 29.579-52.73 3.081-17.47-3.738-27.45-20.431-27.45s-27.033 9.98-30.115 27.45l-1.9 10.77h16.225l2.09-11.86c1.376-7.8 5.019-10.76 10.479-10.76s8.058 2.96 6.682 10.76c-4.787 27.15-23.893 29.33-28.1 53.2a19.846 19.846 0 0 0-.247 6.71h15.289zm-17.417 7.64l-2.916 16.54h16.536l2.917-16.54h-16.537z" transform="translate(-484.344 -6200.06)" fill="none" stroke-linejoin="round" stroke-width="3" stroke="url(#a)"/></svg>